<svg xmlns="http://www.w3.org/2000/svg" xmlns:xlink="http://www.w3.org/1999/xlink" width="118" height="42" viewBox="0 0 118 42">
    <defs>
        <path id="prefix__a" d="M0.08 0.08L2.022 0.08 2.022 2.045 0.08 2.045z"/>
        <path id="prefix__c" d="M0 0.855L10.762 0.855 10.762 19 0 19z"/>
        <path id="prefix__e" d="M0.811 0.855L11.574 0.855 11.574 19 0.811 19z"/>
    </defs>
    <g fill="none" fill-rule="evenodd" transform="translate(2 2)">
        <g>
            <path fill="#2A7AF2" d="M9.182 9.156C7.437 6.222 3.675 4.725 1.584 6.087c-2.007 1.303-.915 5.268 1.398 6.82 1.95 1.308 4.79 3.968 4.972 6.802-.079-1.772 2.966-7.613 1.228-10.553M4.888 16.315c.871 2.437-2.079 3.575-2.914 6.176-.688 2.155 1.015 5.062 3.668 4.092 1.529-.563 2.259-2.213 2.155-4.43-.1-2.175-1.813-4.914-2.91-5.838M1.433.025C.673.193.006.97 0 2.073c-.008 1.101 1.597 2.096 1.764 3.143C3.067 4.212 3.6 2.92 3.514 1.754c-.09-1.167-1.32-1.9-2.08-1.73M4.818 4.628C5.9 4.226 6.53 3.472 6.716 2.668c.18-.798-.49-1.548-1.037-1.595-.542-.045-1.153.338-1.389 1.073-.236.741.632 1.748.528 2.482M7.413 5.705c.966-.36 1.529-1.033 1.69-1.744.167-.715-.43-1.38-.917-1.421-.487-.043-1.032.3-1.24.954-.208.659.56 1.554.467 2.21M8.946 7.152c.874-.021 1.504-.396 1.84-.92.329-.526.036-1.23-.337-1.396-.378-.167-.91-.044-1.26.417-.348.467.018 1.398-.243 1.899" transform="translate(14.4 5.6)"/>
            <g transform="translate(14.4 5.6) translate(9.767 6.962)">
                <mask id="prefix__b" fill="#fff">
                    <use xlink:href="#prefix__a"/>
                </mask>
                <path fill="#2A7AF2" d="M.554.394C.183.756.372 1.616.08 2.021c.766.104 1.371-.143 1.735-.552.358-.416.204-1.068-.104-1.265C1.403.002.925.036.554.394" mask="url(#prefix__b)"/>
            </g>
        </g>
        <circle cx="19.2" cy="19.2" r="19.2" stroke="#2A7AF2" stroke-width="2.4"/>
        <g>
            <g transform="translate(51 10) translate(0 .571)">
                <mask id="prefix__d" fill="#fff">
                    <use xlink:href="#prefix__c"/>
                </mask>
                <path fill="#2A7AF2" d="M1.471 15c.43.653.968 1.17 1.613 1.548.645.378 1.364.567 2.155.567.464 0 .912-.077 1.342-.23.43-.157.808-.364 1.136-.62.326-.259.585-.569.774-.93.19-.36.284-.749.284-1.162 0-.396-.09-.775-.27-1.135-.182-.36-.427-.688-.737-.98-.309-.293-.67-.543-1.084-.749-.413-.207-.85-.345-1.316-.414-.74-.103-1.428-.305-2.064-.606-.637-.3-1.192-.68-1.666-1.136-.473-.456-.847-.967-1.122-1.536C.241 7.05.103 6.448.103 5.811c0-.706.146-1.363.44-1.974.291-.61.691-1.136 1.2-1.574.506-.44 1.104-.784 1.792-1.034C4.223.98 4.955.855 5.73.855c1.033 0 1.962.204 2.788.607.826.404 1.574.976 2.245 1.717L9.214 4.417c-.448-.55-.964-.98-1.549-1.29-.585-.31-1.23-.465-1.936-.465-.482 0-.946.082-1.393.245-.448.164-.844.383-1.187.658-.345.276-.62.6-.826.968-.207.371-.31.762-.31 1.175 0 .413.09.812.271 1.2.181.387.43.732.75 1.032.316.301.691.551 1.121.748.43.2.895.315 1.394.35.74.085 1.423.283 2.051.593.628.31 1.175.688 1.64 1.136.464.447.825.96 1.084 1.535.257.577.387 1.175.387 1.794 0 .688-.147 1.33-.439 1.923-.293.593-.689 1.11-1.187 1.548-.5.44-1.084.787-1.756 1.045-.67.26-1.385.388-2.142.388-1.084 0-2.082-.263-2.993-.788C1.282 17.687.55 17.013 0 16.186L1.471 15z" mask="url(#prefix__d)"/>
            </g>
            <path fill="#2A7AF2" d="M20.027 3.337L20.027 19.339 18.143 19.339 18.143 3.337 12.569 3.337 12.569 1.505 25.55 1.505 25.55 3.337zM37.319 10.821L29.835 10.821 29.835 17.455 38.61 17.455 38.61 19.339 27.976 19.339 27.976 1.505 38.61 1.505 38.61 3.337 29.835 3.337 29.835 8.937 37.319 8.937zM43.074 3.337v5.626h3.433c.464 0 .9-.072 1.303-.22.404-.145.757-.347 1.058-.605.301-.26.542-.56.723-.904.181-.343.271-.722.271-1.135 0-.38-.09-.736-.27-1.072-.182-.335-.427-.628-.737-.878-.309-.25-.667-.447-1.07-.592-.405-.147-.839-.22-1.304-.22h-3.407zm0 7.51v8.492h-1.858V1.505h5.291c.722 0 1.402.12 2.04.36.635.242 1.19.573 1.663.994.473.422.847.913 1.123 1.47.275.56.413 1.15.413 1.77 0 .67-.138 1.295-.413 1.87-.276.578-.65 1.076-1.123 1.498-.473.42-1.028.757-1.664 1.007-.637.249-1.317.374-2.039.374h-3.433z" transform="translate(51 10)"/>
            <g transform="translate(51 10) translate(53 .571)">
                <mask id="prefix__f" fill="#fff">
                    <use xlink:href="#prefix__e"/>
                </mask>
                <path fill="#2A7AF2" d="M2.282 15c.43.653.968 1.17 1.613 1.548.645.378 1.364.567 2.155.567.465 0 .912-.077 1.342-.23.43-.157.809-.364 1.136-.62.327-.259.585-.569.774-.93.189-.36.284-.749.284-1.162 0-.396-.09-.775-.271-1.135-.18-.36-.426-.688-.736-.98-.31-.293-.671-.543-1.084-.749-.412-.207-.851-.345-1.316-.414-.74-.103-1.428-.305-2.064-.606-.637-.3-1.192-.68-1.665-1.136-.474-.456-.848-.967-1.123-1.536C1.052 7.05.914 6.448.914 5.811c0-.706.146-1.363.439-1.974.292-.61.693-1.136 1.2-1.574.507-.44 1.105-.784 1.794-1.034C5.035.98 5.766.855 6.54.855c1.032 0 1.96.204 2.787.607.826.404 1.574.976 2.246 1.717l-1.55 1.238c-.447-.55-.963-.98-1.548-1.29-.585-.31-1.23-.465-1.935-.465-.482 0-.947.082-1.394.245-.448.164-.843.383-1.187.658-.345.276-.62.6-.826.968-.206.371-.31.762-.31 1.175 0 .413.09.812.27 1.2.182.387.43.732.75 1.032.318.301.692.551 1.123.748.429.2.894.315 1.393.35.739.085 1.423.283 2.052.593.628.31 1.174.688 1.639 1.136.464.447.826.96 1.084 1.535.258.577.387 1.175.387 1.794 0 .688-.147 1.33-.44 1.923-.292.593-.687 1.11-1.186 1.548-.5.44-1.084.787-1.755 1.045-.671.26-1.385.388-2.142.388-1.084 0-2.082-.263-2.994-.788-.912-.525-1.643-1.199-2.194-2.026L2.28 15z" mask="url(#prefix__f)"/>
            </g>
        </g>
    </g>
</svg>
